<svg width="445.845" height="371.428" viewBox="0 0 117.963 98.274" xml:space="preserve" xmlns="http://www.w3.org/2000/svg"><path style="fill:#AF3300;stroke:none" d="M64.187 100.284h.265c4.172 4.552 12.427 4.496 17.463 1.621 4.065-2.32 7.298-6.538 10.583-9.823l19.05-19.05c3.924-3.924 9.131-7.773 10.914-13.23 3.055-9.349-2.963-15.331-9.062-21.43L96.996 21.967C89.74 14.712 82.423 3.727 70.802 6.042c-2.277.453-4.762 1.493-6.35 3.225-1.46-1.121-3.018-2.108-4.762-2.725-11.919-4.218-19.895 7.274-27.252 14.632L15.504 38.107C9.201 44.41 3.005 50.431 6.177 60.067c1.737 5.276 7.118 9.168 10.915 12.965l19.05 19.05c3.285 3.285 6.518 7.503 10.583 9.823 5.036 2.875 13.29 2.931 17.462-1.621M59.69 13.501c-1.492 3.198-5.452 5.98-7.938 8.466L34.025 39.694c-4.4 4.4-8.845 8.39-8.845 15.082 0 6.691 4.445 10.681 8.845 15.081l17.727 17.727c2.486 2.486 6.446 5.268 7.938 8.467-9.994 5.81-18.72-7.871-24.871-14.023L17.62 64.83c-3.166-3.166-6.565-6.222-6.04-11.113.55-5.117 5.837-8.793 9.215-12.17l23.019-23.02c4.617-4.617 9.26-8.873 15.875-5.026m9.26 82.55c1.492-3.199 5.451-5.98 7.937-8.467l17.728-17.727c4.915-4.916 9.435-9.44 8.686-16.933-.591-5.908-5.018-9.56-8.951-13.494L76.887 21.967c-2.486-2.486-6.445-5.268-7.937-8.466 9.928-5.773 18.489 7.64 24.606 13.758l17.463 17.463c2.87 2.87 6.36 5.837 6.036 10.318-.403 5.576-5.278 9.032-8.947 12.7L84.825 91.024c-4.618 4.617-9.26 8.873-15.875 5.027m-4.498-78.052L88.794 42.34c3.42 3.42 8.3 6.881 8.432 12.171.137 5.455-4.689 8.956-8.168 12.436L64.452 91.553h-.265L40.64 68.005c-3.296-3.295-8.262-6.783-9.138-11.642-.985-5.463 3.291-8.97 6.756-12.435L55.456 26.73c2.876-2.876 5.67-6.388 8.996-8.731m-9.26 20.569c-2.706 1.047-1.852 5.193-1.852 7.476v20.109c0 2.69.643 5.93 4.233 4.855 2.3-.689 4.538-2.495 6.614-3.685l12.7-7.295c1.885-1.076 5.284-2.237 5.527-4.723.282-2.885-2.922-4.06-4.997-5.252-5.23-3.002-10.395-6.12-15.61-9.148-1.875-1.088-4.277-3.242-6.614-2.337" transform="translate(-5.32 -5.637)"/></svg>